<svg xmlns="http://www.w3.org/2000/svg" viewBox="0 0 500 500"><g id="freepik--Window--inject-101"><rect x="161.05" y="102.46" width="177.9" height="274.01" style="fill:#fff"></rect><path d="M345,382.47H155.05v-286H345Zm-177.9-12H333v-262H167.05Z" style="fill:#37474f"></path><rect x="161.05" y="206.09" width="177.9" height="6.06" style="fill:#37474f"></rect><rect x="161.05" y="160.91" width="177.9" height="6.06" style="fill:#37474f"></rect><rect x="246.03" y="158.16" width="93.94" height="5.5" transform="translate(132.09 453.91) rotate(-90)" style="fill:#37474f"></rect><rect x="203.03" y="158.16" width="93.94" height="5.5" transform="translate(89.09 410.91) rotate(-90)" style="fill:#37474f"></rect><rect x="160.03" y="158.16" width="93.94" height="5.5" transform="translate(46.09 367.91) rotate(-90)" style="fill:#37474f"></rect><rect x="149.91" y="95.46" width="200.18" height="21.94" style="fill:#37474f"></rect><rect x="149.91" y="95.46" width="200.18" height="15.3" style="fill:#263238"></rect><rect x="142.35" y="84.49" width="215.31" height="21.94" style="fill:#37474f"></rect><rect x="66.11" y="117.41" width="88.94" height="265.06" style="fill:#dbdbdb"></rect><rect x="73.99" y="126.29" width="73.18" height="4.88" style="fill:#c7c7c7"></rect><rect x="73.99" y="135.27" width="73.18" height="4.88" style="fill:#c7c7c7"></rect><rect x="73.99" y="144.25" width="73.18" height="4.88" style="fill:#c7c7c7"></rect><rect x="73.99" y="153.22" width="73.18" height="4.88" style="fill:#c7c7c7"></rect><rect x="73.99" y="162.2" width="73.18" height="4.88" style="fill:#c7c7c7"></rect><rect x="73.99" y="171.18" width="73.18" height="4.88" style="fill:#c7c7c7"></rect><rect x="73.99" y="180.16" width="73.18" height="4.88" style="fill:#c7c7c7"></rect><rect x="73.99" y="189.14" width="73.18" height="4.88" style="fill:#c7c7c7"></rect><rect x="73.99" y="198.12" width="73.18" height="4.88" style="fill:#c7c7c7"></rect><rect x="73.99" y="207.1" width="73.18" height="4.88" style="fill:#c7c7c7"></rect><rect x="73.99" y="216.07" width="73.18" height="4.88" style="fill:#c7c7c7"></rect><rect x="73.99" y="225.05" width="73.18" height="4.88" style="fill:#c7c7c7"></rect><rect x="73.99" y="243.01" width="73.18" height="4.88" style="fill:#c7c7c7"></rect><rect x="73.99" y="251.99" width="73.18" height="4.88" style="fill:#c7c7c7"></rect><rect x="73.99" y="260.97" width="73.18" height="4.88" style="fill:#c7c7c7"></rect><rect x="73.99" y="269.95" width="73.18" height="4.88" style="fill:#c7c7c7"></rect><rect x="73.99" y="278.92" width="73.18" height="4.88" style="fill:#c7c7c7"></rect><rect x="73.99" y="287.9" width="73.18" height="4.88" style="fill:#c7c7c7"></rect><rect x="73.99" y="296.88" width="73.18" height="4.88" style="fill:#c7c7c7"></rect><rect x="73.99" y="305.86" width="73.18" height="4.88" style="fill:#c7c7c7"></rect><rect x="73.99" y="314.84" width="73.18" height="4.88" style="fill:#c7c7c7"></rect><rect x="73.99" y="323.82" width="73.18" height="4.88" style="fill:#c7c7c7"></rect><rect x="73.99" y="332.8" width="73.18" height="4.88" style="fill:#c7c7c7"></rect><rect x="73.99" y="341.78" width="73.18" height="4.88" style="fill:#c7c7c7"></rect><rect x="73.99" y="350.75" width="73.18" height="4.88" style="fill:#c7c7c7"></rect><rect x="73.99" y="359.73" width="73.18" height="4.88" style="fill:#c7c7c7"></rect><rect x="73.99" y="368.71" width="73.18" height="4.88" style="fill:#c7c7c7"></rect><rect x="344.95" y="117.41" width="88.94" height="265.06" style="fill:#dbdbdb"></rect><rect x="352.83" y="126.29" width="73.18" height="4.88" style="fill:#c7c7c7"></rect><rect x="352.83" y="135.27" width="73.18" height="4.88" style="fill:#c7c7c7"></rect><rect x="352.83" y="144.25" width="73.18" height="4.88" style="fill:#c7c7c7"></rect><rect x="352.83" y="153.22" width="73.18" height="4.88" style="fill:#c7c7c7"></rect><rect x="352.83" y="162.2" width="73.18" height="4.88" style="fill:#c7c7c7"></rect><rect x="352.83" y="171.18" width="73.18" height="4.88" style="fill:#c7c7c7"></rect><rect x="352.83" y="180.16" width="73.18" height="4.88" style="fill:#c7c7c7"></rect><rect x="352.83" y="189.14" width="73.18" height="4.88" style="fill:#c7c7c7"></rect><rect x="352.83" y="198.12" width="73.18" height="4.88" style="fill:#c7c7c7"></rect><rect x="352.83" y="207.1" width="73.18" height="4.88" style="fill:#c7c7c7"></rect><rect x="352.83" y="216.07" width="73.18" height="4.88" style="fill:#c7c7c7"></rect><rect x="352.83" y="225.05" width="73.18" height="4.88" style="fill:#c7c7c7"></rect><rect x="352.83" y="243.01" width="73.18" height="4.88" style="fill:#c7c7c7"></rect><rect x="352.83" y="251.99" width="73.18" height="4.88" style="fill:#c7c7c7"></rect><rect x="352.83" y="260.97" width="73.18" height="4.88" style="fill:#c7c7c7"></rect><rect x="352.83" y="269.95" width="73.18" height="4.88" style="fill:#c7c7c7"></rect><rect x="352.83" y="278.92" width="73.18" height="4.88" style="fill:#c7c7c7"></rect><rect x="352.83" y="287.9" width="73.18" height="4.88" style="fill:#c7c7c7"></rect><rect x="352.83" y="296.88" width="73.18" height="4.88" style="fill:#c7c7c7"></rect><rect x="352.83" y="305.86" width="73.18" height="4.88" style="fill:#c7c7c7"></rect><rect x="352.83" y="314.84" width="73.18" height="4.88" style="fill:#c7c7c7"></rect><rect x="352.83" y="323.82" width="73.18" height="4.88" style="fill:#c7c7c7"></rect><rect x="352.83" y="332.8" width="73.18" height="4.88" style="fill:#c7c7c7"></rect><rect x="352.83" y="341.78" width="73.18" height="4.88" style="fill:#c7c7c7"></rect><rect x="352.83" y="350.75" width="73.18" height="4.88" style="fill:#c7c7c7"></rect><rect x="352.83" y="359.73" width="73.18" height="4.88" style="fill:#c7c7c7"></rect><rect x="352.83" y="368.71" width="73.18" height="4.88" style="fill:#c7c7c7"></rect></g><g id="freepik--Character--inject-101"><path d="M269.52,246.21c-.54,17.69,1.78,39-7,55.16-6.87,12.64-19.87,20.51-33.06,25.19-29,10.29-68.43,8.91-86-20.44-7-11.73-6.58-35,7.08-42.51,7-3.83,15-4.23,22.76-5.7,10.18-1.92,17.8-7,23.11-15.9,10.39-17.4,9.6-30.78,12.81-50.21.61-3.6,1.73-7.11,5.55-9.9a24.84,24.84,0,0,1,12.09-5.56,24.76,24.76,0,0,1,12-1.06c8.59,1.56,16.3,10.19,22.62,15.67s9.12,11.06,9,19.61C270.41,222.45,269.88,234.33,269.52,246.21Z" style="fill:#263238"></path><path d="M271.07,254.69c-.54-16.26-1.41-32.47-2.17-48.71,0-.1-.15-.11-.15,0,.23,13.38.29,26.75.7,40.13.4,13.11,1.71,26.56,1,39.67-1.68,29.41-32.79,39.07-57.66,35.73-1.13-.15-1.24,1.67-.09,1.78,21.92,2.25,48.7-3.26,57.15-26.63C274.44,283.87,271.52,268,271.07,254.69Z" style="fill:#263238"></path><path d="M210.83,190.37a.25.25,0,0,0-.49,0c-2,16.1-2.75,35-13,48.42a41.18,41.18,0,0,1-19.89,14c-6.25,2-12.7,1.73-19.14,2.5-25.16,3-28,36.45-10.92,50.88.35.3.89-.3.54-.63-11.91-11.07-14.7-29.76-3.33-42.46,9.12-10.19,24.8-5.54,36.56-10.52C205.53,242.24,209.54,213.86,210.83,190.37Z" style="fill:#263238"></path><path d="M213.42,259c-26.13,26.49-59,82.22-52.88,93.51,6.83,12.59,43.22-24.55,43.08-26.72-.11-1.64,12.7-35.49,22.41-60.11S219.89,252.41,213.42,259Z" style="fill:#f7a9a0"></path><path d="M203.86,325.79c1.12-3.62,18.54-48.25,23.52-62.37s.36-18.48-13.86-5.55-45.4,56.11-52.51,79c-6.86,22.08,4.51,22.08,19.51,11.9C192.8,340.48,203.86,325.79,203.86,325.79Z" style="fill:#FFA800"></path><path d="M229.25,255.8c0,.26-.05.52-.09.8a.91.91,0,0,1-.75.39.89.89,0,1,1,.84-1.19ZM199.6,274.48a.9.9,0,1,0,.89.89A.89.89,0,0,0,199.6,274.48Zm14.4,0a.9.9,0,1,0,.9.89A.89.89,0,0,0,214,274.48Zm-7.2-9.23a.9.9,0,1,0,.9.89A.89.89,0,0,0,206.8,265.25Zm14.41,0a.9.9,0,1,0,.89.89A.89.89,0,0,0,221.21,265.25Zm-36,28.5a.9.9,0,1,0,.89.89A.89.89,0,0,0,185.2,293.75Zm14.4,0a.9.9,0,1,0,.89.89A.89.89,0,0,0,199.6,293.75Zm14.4,0a.9.9,0,1,0,.9.89A.89.89,0,0,0,214,293.75Zm-21.6-9.23a.9.9,0,1,0,.89.89A.89.89,0,0,0,192.4,284.52Zm14.4,0a.9.9,0,1,0,.9.89A.89.89,0,0,0,206.8,284.52ZM185.2,313a.9.9,0,1,0,.89.89A.89.89,0,0,0,185.2,313Zm14.4,0a.9.9,0,1,0,.89.89A.89.89,0,0,0,199.6,313ZM178,303.79a.9.9,0,1,0,.9.89A.89.89,0,0,0,178,303.79Zm14.41,0a.9.9,0,1,0,.89.89A.89.89,0,0,0,192.4,303.79Zm14.4,0a.9.9,0,1,0,.9.89A.89.89,0,0,0,206.8,303.79Zm-36,28.5a.89.89,0,1,0,.9.89A.89.89,0,0,0,170.79,332.29Zm14.41,0a.89.89,0,1,0,.89.89A.89.89,0,0,0,185.2,332.29ZM178,323.06a.9.9,0,1,0,.9.89A.89.89,0,0,0,178,323.06Zm14.41,0a.9.9,0,1,0,.89.89A.89.89,0,0,0,192.4,323.06Zm-21.61,28.5a.89.89,0,1,0,.9.89A.89.89,0,0,0,170.79,351.56Zm-7.2-9.23a.9.9,0,1,0,.89.89A.89.89,0,0,0,163.59,342.33Zm14.4,0a.9.9,0,1,0,.9.89A.89.89,0,0,0,178,342.33Z" style="fill:#fff"></path><path d="M193.53,366.34l2.61-15.65,3.75-27.77s-8.83-15.42-3.71-26.48C198.77,290.83,221.46,256,231,249c9-6.51,22,.46,26.82,5.55,18.66,19.64,27.46,58.64,34.16,111.76Z" style="fill:#f7a9a0"></path><path d="M196.8,345.78l3.09-22.85s-8.83-15.42-3.71-26.49C198.77,290.83,221.46,256,231,249c9-6.5,22,.46,26.82,5.56,16.16,17,24.93,48.54,31.34,91.19Z" style="fill:#FFA800"></path><path d="M235.1,322.46a88.13,88.13,0,0,0-13.1-.17c-2.16.16-4.31.42-6.46.73-1.07.15-2.14.27-3.22.38a13.66,13.66,0,0,1-3.38,0,.08.08,0,1,0,0,.15,24.06,24.06,0,0,0,3.17.51,23.06,23.06,0,0,0,3.11,0c2.2-.14,4.39-.39,6.59-.55,4.43-.34,8.86-.67,13.31-.69A.18.18,0,0,0,235.1,322.46Z" style="fill:#263238"></path><path d="M245,328.14a95.08,95.08,0,0,0-10.54-2.4c-1.78-.3-3.56-.48-5.36-.63-.86-.07-1.72-.12-2.58-.16s-1.9,0-2.85,0c-.1,0-.13.14,0,.15.89.09,1.77.32,2.65.46l2.66.4c1.78.27,3.56.56,5.34.82,3.56.51,7.11,1.05,10.65,1.68C245.16,328.47,245.2,328.19,245,328.14Z" style="fill:#263238"></path><path d="M196.14,350.69c.5-4.64,1-9.29,1.59-13.92s1.1-9.28,1.72-13.91l.09.33a28.32,28.32,0,0,1-3.25-6.09,31.66,31.66,0,0,1-1.84-6.63,30.54,30.54,0,0,1-.3-6.89,25.39,25.39,0,0,1,1.7-6.69,67.76,67.76,0,0,1,6.41-12,113.87,113.87,0,0,1,8.08-10.94c-2.69,3.64-5.21,7.41-7.57,11.26a76.4,76.4,0,0,0-6.09,12,24.06,24.06,0,0,0-1.58,6.45,31.53,31.53,0,0,0,.33,6.65,30.58,30.58,0,0,0,1.73,6.45,27.13,27.13,0,0,0,3.08,5.9l.1.15,0,.17c-.62,4.63-1.35,9.24-2,13.87S196.89,346.08,196.14,350.69Z" style="fill:#263238"></path><path d="M202.77,284.87a8.14,8.14,0,0,1,.37-1.83,15.86,15.86,0,0,1,.65-1.74c.25-.56.51-1.12.81-1.66a14.27,14.27,0,0,1,1-1.57c-.38,1.19-.87,2.31-1.35,3.43S203.24,283.72,202.77,284.87Z" style="fill:#263238"></path><polygon points="121.74 444.57 378.26 444.57 387.82 396.49 112.18 396.49 121.74 444.57" style="fill:#FFA800"></polygon><polygon points="112.19 396.49 115.61 413.68 384.39 413.68 387.81 396.49 112.19 396.49" style="opacity:0.12"></polygon><rect x="107.38" y="393.14" width="285.24" height="14.63" transform="translate(500 800.92) rotate(180)" style="fill:#FFA800"></rect><path d="M389.39,388.53a6.25,6.25,0,0,1-3.17,1.67,7.65,7.65,0,0,1-2,8.52,4.31,4.31,0,0,1-5.24,5.86,10.76,10.76,0,0,1-15.47,3.91,8.23,8.23,0,0,1-13.65,1.06,13.07,13.07,0,0,1-17.26-1.69,7.78,7.78,0,0,1-4.34,2c-2,.34-4.1.11-6.06.58-2.78.67-4.45,2.67-6.6,4.34s-6,2.3-8.07.6a27.88,27.88,0,0,1-22.05,14.09c-7.81.6-17.54-3.13-19.39-11.13A16.35,16.35,0,0,1,240.21,412c-6.13,2.56-14.07,4.27-18-1.64a10.23,10.23,0,0,1-13.55,1.72c-6.24,6.61-17.43,14.59-24.81,5.85-6.32,5.67-16.87,9.41-22.31,1-5.29,3.11-12,5.91-17.82,2.85-3.84-2-6.32-6.1-5.69-10.29a7.74,7.74,0,0,1-7.86-3.3c-2.5,1.19-3.92-1.42-5.89-3.09-3.79-3.25-8.8-.88-12.75-3.66-6.4-4.49-.9-11.67,4.23-14a9.91,9.91,0,0,1,12.34-11,12.59,12.59,0,0,1,6.3-12.82c6.82-3.84,14.74-.49,19.74,4.73A25.69,25.69,0,0,1,177,356.82c5.58.3,13,3.58,15.7,8.78a21.47,21.47,0,0,1,5.89-2.31,21.71,21.71,0,0,1,21.51,7.1,19.31,19.31,0,0,1,19.63,3.78,16.69,16.69,0,0,1,27.79,1.05,26.46,26.46,0,0,1,41.72,2c4.9-8.67,14.78-9.17,24.25-8.11,3,.32,5,.3,7.72-.95,1-.45,1.86-1.1,2.85-1.53a20.23,20.23,0,0,1,6.52-1.68,22.64,22.64,0,0,1,13.05,2.8c1.75,1,3.54,3.52,5.22,4.21,2.11.86,6-.37,8.43-.05,4.36.59,9,2.64,11.83,6.15C391.52,381.16,392.52,385.6,389.39,388.53Z" style="fill:#455a64"></path><path d="M141.8,384.46c2-4.15,0-11.57-5.23-13.7s-12.35,1.91-13.51,6.48S126.9,389.45,131,390C135.58,390.58,140.32,387.51,141.8,384.46Z" style="fill:#FFA800"></path><path d="M120.87,378.34c3.71,3.18,9.87,6,14.91,5.79a41.35,41.35,0,0,1-6.68,6.56c-.14.12,0,.38.19.27,5.78-3.85,11.47-10.81,11.72-18,0-.1-.13-.1-.14,0a18.75,18.75,0,0,1-1.69,5.81c-2-4.3-7.66-7.53-12-8.55a.11.11,0,0,0-.07.21,40.41,40.41,0,0,1,3.89,1.82c-2.4,2.12-4.21,6.25-3.67,9.42a33.53,33.53,0,0,1-6.2-3.61C121,377.91,120.7,378.2,120.87,378.34ZM136,383.88a23.64,23.64,0,0,1-6.09-1.24,14.06,14.06,0,0,0,8.42-2.22A29.5,29.5,0,0,1,136,383.88Zm3-4.78c-.16.33-.33.65-.51,1a18.66,18.66,0,0,1-6.24,1.89,11.76,11.76,0,0,0,4.61-5.46A18.5,18.5,0,0,1,139,379.1Zm-2.26-2.72a19.88,19.88,0,0,1-2.87,3.88c-.41-.09-.81-.21-1.21-.34a5,5,0,0,0,2-4.18c.56.07,1.13.17,1.71.29Zm-4.26-.76a4.4,4.4,0,0,1,.44.93,4.62,4.62,0,0,1,.11,1.23,5.55,5.55,0,0,1-2-.08,9.19,9.19,0,0,1,.69-2C132,375.64,132.23,375.63,132.48,375.62Zm.37,0a13.48,13.48,0,0,1,1.67.1,9.81,9.81,0,0,1-.64,1.94l-.77.11A2.52,2.52,0,0,0,132.85,375.62Zm.91,2.27a6.59,6.59,0,0,1-1.48,1.89,11.4,11.4,0,0,1-1.07-.49,2.83,2.83,0,0,1-.21-1.38A3.22,3.22,0,0,0,133.76,377.89Zm-2.6-5.57a25.46,25.46,0,0,1,4.76,3.31,9.36,9.36,0,0,0-6.89.4A15.48,15.48,0,0,1,131.16,372.32Zm-2.25,4a11.28,11.28,0,0,1,2.62-.65,3.62,3.62,0,0,0-.75,3.33,8.13,8.13,0,0,1-2.18-1.86C128.7,376.88,128.81,376.61,128.91,376.34Zm-.46,1.26a7.67,7.67,0,0,0,5.26,2.81,13.86,13.86,0,0,1-1.89,1.61c-.88.12-1.79.2-2.75.29l0,0c-.49-.19-1-.38-1.47-.59A22,22,0,0,1,128.45,377.6Z" style="opacity:0.12"></path><path d="M229.19,382.91c2-4.16,0-11.57-5.23-13.71s-12.36,1.92-13.52,6.48,3.85,12.22,8,12.75C223,389,227.71,386,229.19,382.91Z" style="fill:#FFA800"></path><path d="M208.26,376.79c3.71,3.17,9.86,6,14.91,5.79a41.35,41.35,0,0,1-6.68,6.56c-.14.12,0,.37.19.27,5.78-3.85,11.47-10.82,11.72-18a.07.07,0,0,0-.14,0,18.83,18.83,0,0,1-1.69,5.81c-2-4.3-7.66-7.53-12-8.55a.11.11,0,0,0-.07.21,39.18,39.18,0,0,1,3.89,1.82c-2.4,2.12-4.21,6.24-3.67,9.41a32.94,32.94,0,0,1-6.2-3.6C208.34,376.36,208.09,376.64,208.26,376.79Zm15.11,5.54a23.58,23.58,0,0,1-6.09-1.25,13.87,13.87,0,0,0,8.41-2.22A27.59,27.59,0,0,1,223.37,382.33Zm3-4.78c-.16.33-.33.65-.51,1a18.66,18.66,0,0,1-6.24,1.89,11.76,11.76,0,0,0,4.61-5.46A17.42,17.42,0,0,1,226.39,377.55Zm-2.27-2.73a19.22,19.22,0,0,1-2.86,3.89,10.42,10.42,0,0,1-1.21-.35,5,5,0,0,0,2-4.18q.84.1,1.71.3Zm-4.25-.75a5,5,0,0,1,.44.93,4.59,4.59,0,0,1,.11,1.23,5.55,5.55,0,0,1-2-.09,9.55,9.55,0,0,1,.69-2C219.37,374.09,219.62,374.07,219.87,374.07Zm.37,0a15.74,15.74,0,0,1,1.67.1,9,9,0,0,1-.65,1.94c-.25,0-.51.09-.76.12A2.55,2.55,0,0,0,220.24,374.06Zm.91,2.28a6.73,6.73,0,0,1-1.48,1.89,11.4,11.4,0,0,1-1.07-.49,2.85,2.85,0,0,1-.21-1.38A3.22,3.22,0,0,0,221.15,376.34Zm-2.6-5.57a25.41,25.41,0,0,1,4.76,3.3,9.36,9.36,0,0,0-6.89.41A15.48,15.48,0,0,1,218.55,370.77Zm-2.25,4a10.8,10.8,0,0,1,2.62-.65,3.62,3.62,0,0,0-.75,3.33A8,8,0,0,1,216,375.6Zm-.46,1.26a7.71,7.71,0,0,0,5.26,2.81,14.6,14.6,0,0,1-1.89,1.61c-.88.11-1.79.2-2.75.28l-.05,0c-.49-.18-1-.37-1.47-.58A21.81,21.81,0,0,1,215.84,376.05Z" style="opacity:0.12"></path><path d="M295.87,401.76c4.52-1,9.13-7.11,7.62-12.53s-9.09-8.59-13.41-6.71-7.29,10.53-5.19,14.11C287.23,400.6,292.56,402.46,295.87,401.76Z" style="fill:#FFA800"></path><path d="M287.87,381.48c-.23,4.87,1.32,11.46,4.57,15.32a41.7,41.7,0,0,1-9.27-1.25c-.19,0-.28.26-.1.32,6.58,2.2,15.57,2.42,21.42-1.79a.08.08,0,0,0-.09-.12,18.67,18.67,0,0,1-5.63,2.23c2.2-4.19,1.25-10.67-.6-14.72a.11.11,0,0,0-.21.07,39.13,39.13,0,0,1,1,4.19c-3.15-.6-7.51.51-9.69,2.88a33.8,33.8,0,0,1-1-7.11C288.26,381.27,287.88,381.25,287.87,381.48Zm4.89,15.33a23.88,23.88,0,0,1-2.75-5.57,13.93,13.93,0,0,0,6.91,5.28A28.79,28.79,0,0,1,292.76,396.81Zm5.63-.55c-.36.08-.72.14-1.08.19a18.51,18.51,0,0,1-5.32-3.77,11.77,11.77,0,0,0,7.14.3A18,18,0,0,1,298.39,396.26Zm.76-3.46a19.45,19.45,0,0,1-4.82.12,9.85,9.85,0,0,1-.47-1.17,5,5,0,0,0,4.52-1q.44.74.81,1.53C299.18,392.46,299.17,392.63,299.15,392.8Zm-2-3.83a4.7,4.7,0,0,1-.47.92,3.78,3.78,0,0,1-.9.84,5.43,5.43,0,0,1-1.15-1.62,9.32,9.32,0,0,1,2-.7Zm.23.3a13.25,13.25,0,0,1,.94,1.37,8.73,8.73,0,0,1-1.92.69l-.57-.54A2.51,2.51,0,0,0,297.37,389.27Zm-1.23,2.11a6.51,6.51,0,0,1-2.41,0,9,9,0,0,1-.26-1.14,2.71,2.71,0,0,1,1-1A3.17,3.17,0,0,0,296.14,391.38Zm2.8-5.47a25.49,25.49,0,0,1,.3,5.78,9.28,9.28,0,0,0-4.54-5.18A15.34,15.34,0,0,1,298.94,385.91Zm-4.56.69a10.5,10.5,0,0,1,2.12,1.67,3.61,3.61,0,0,0-3.09,1.45,8.14,8.14,0,0,1,.14-2.87Zm-1.27.41a7.66,7.66,0,0,0,1,5.88,13.65,13.65,0,0,1-2.43-.51c-.63-.63-1.26-1.29-1.91-2l0,0c-.16-.51-.3-1-.44-1.52A21.86,21.86,0,0,1,293.11,387Z" style="opacity:0.12"></path><path d="M364.88,390.74c-4.51-1-9.13-7.11-7.62-12.53s9.09-8.59,13.41-6.7,7.29,10.52,5.19,14.1C373.53,389.58,368.19,391.44,364.88,390.74Z" style="fill:#FFA800"></path><path d="M372.49,370.48a34.4,34.4,0,0,1-1,7.11c-2.17-2.37-6.54-3.47-9.69-2.88a39.69,39.69,0,0,1,1-4.19.11.11,0,0,0-.21-.07c-1.85,4.05-2.79,10.53-.6,14.72a18.67,18.67,0,0,1-5.63-2.23.07.07,0,1,0-.08.12c5.84,4.22,14.83,4,21.42,1.79.17-.06.08-.36-.1-.31a43.09,43.09,0,0,1-9.28,1.25c3.25-3.87,4.81-10.46,4.57-15.33C372.87,370.23,372.49,370.25,372.49,370.48Zm-8.66,15a13.93,13.93,0,0,0,6.91-5.28,23.5,23.5,0,0,1-2.75,5.57A28.79,28.79,0,0,1,363.83,385.5Zm-2.2-3.54a11.77,11.77,0,0,0,7.14-.3,18.78,18.78,0,0,1-5.33,3.78c-.36-.06-.72-.12-1.07-.2A17.25,17.25,0,0,1,361.63,382Zm-.07-.69c.26-.53.53-1,.82-1.53a5,5,0,0,0,4.52,1,11.9,11.9,0,0,1-.47,1.17,19.53,19.53,0,0,1-4.83-.12C361.58,381.61,361.58,381.44,361.56,381.27Zm2.55-3.87a8.81,8.81,0,0,1,2,.69,5.56,5.56,0,0,1-1.16,1.63,4.27,4.27,0,0,1-.9-.85,4.62,4.62,0,0,1-.47-.91C363.77,377.77,363.94,377.58,364.11,377.4Zm.82,2.37c-.18.19-.37.37-.56.54a9.1,9.1,0,0,1-1.93-.68,12.39,12.39,0,0,1,.94-1.38A2.54,2.54,0,0,0,364.93,379.77Zm1.4-1.57a2.68,2.68,0,0,1,1,1,11.1,11.1,0,0,1-.27,1.14,6.46,6.46,0,0,1-2.4,0A3.2,3.2,0,0,0,366.33,378.2Zm-.28-2.71a9.34,9.34,0,0,0-4.54,5.19,25.55,25.55,0,0,1,.3-5.79A15.34,15.34,0,0,1,366.05,375.49Zm1.15.35a7.85,7.85,0,0,1,.15,2.86,3.6,3.6,0,0,0-3.1-1.44,10.47,10.47,0,0,1,2.12-1.68C366.65,375.67,366.93,375.74,367.2,375.84Zm4.27,2c-.13.51-.28,1-.44,1.52l0,0c-.66.71-1.28,1.37-1.91,2a13.75,13.75,0,0,1-2.44.51,7.66,7.66,0,0,0,1-5.88A22.1,22.1,0,0,1,371.47,377.82Z" style="opacity:0.12"></path><path d="M177.8,409.38c-4.51-.95-9.12-7.11-7.62-12.53s9.09-8.59,13.41-6.7,7.3,10.53,5.2,14.1C186.45,408.23,181.12,410.09,177.8,409.38Z" style="fill:#FFA800"></path><path d="M185.41,389.12a33,33,0,0,1-1,7.11c-2.17-2.37-6.53-3.47-9.68-2.88a39.51,39.51,0,0,1,.95-4.18.11.11,0,0,0-.21-.08c-1.86,4.05-2.8,10.54-.6,14.72a18.56,18.56,0,0,1-5.63-2.23c-.08,0-.16.07-.09.12,5.84,4.22,14.84,4,21.42,1.79.18-.06.08-.35-.1-.31a41.7,41.7,0,0,1-9.27,1.25c3.25-3.87,4.8-10.46,4.57-15.32C185.79,388.88,185.42,388.9,185.41,389.12Zm-8.66,15a14,14,0,0,0,6.92-5.29,23.69,23.69,0,0,1-2.75,5.57A27.56,27.56,0,0,1,176.75,404.15Zm-2.2-3.55a11.77,11.77,0,0,0,7.14-.29,18.56,18.56,0,0,1-5.33,3.77l-1.07-.19A18,18,0,0,1,174.55,400.6Zm-.07-.68c.26-.54.53-1.05.82-1.54a5,5,0,0,0,4.52,1,10.81,10.81,0,0,1-.47,1.16,19.45,19.45,0,0,1-4.82-.11C174.5,400.26,174.5,400.09,174.48,399.92ZM177,396a9.32,9.32,0,0,1,2,.7,5.82,5.82,0,0,1-1.15,1.62,4.24,4.24,0,0,1-.9-.84,3.81,3.81,0,0,1-.47-.92C176.7,396.41,176.86,396.22,177,396Zm.82,2.38-.56.53a9.51,9.51,0,0,1-1.93-.68,14.66,14.66,0,0,1,.95-1.38A2.51,2.51,0,0,0,177.85,398.42Zm1.4-1.58a2.75,2.75,0,0,1,1,1,7.67,7.67,0,0,1-.27,1.15,6.68,6.68,0,0,1-2.4,0A3.17,3.17,0,0,0,179.25,396.84Zm-.28-2.71a9.32,9.32,0,0,0-4.53,5.19,25.49,25.49,0,0,1,.3-5.78A14.89,14.89,0,0,1,179,394.13Zm1.16.35a8.14,8.14,0,0,1,.14,2.87,3.59,3.59,0,0,0-3.1-1.45,11.09,11.09,0,0,1,2.12-1.67Zm4.26,2c-.13.52-.28,1-.43,1.52,0,0,0,0-.05,0-.65.71-1.28,1.37-1.91,2a14.47,14.47,0,0,1-2.44.5,7.64,7.64,0,0,0,1-5.87A21.73,21.73,0,0,1,184.39,396.46Z" style="opacity:0.12"></path><path d="M160.54,352.47c5.88,8.42,21.89,10,61.84,17.85C227.9,371.4,246,334.45,240.19,333c-7.36-1.84-36.31-7.38-38.48-7.52C183.42,324.31,156.55,346.77,160.54,352.47Z" style="fill:#f7a9a0"></path><path d="M232.2,331.17s16.93,2.55,25.4,6.65c11.35,5.48,18.89,14.89,21.81,19,6.1,8.63,14.88,33.7,8.09,37.49-6.13,3.43-13.81-22.65-13.81-22.65s12.22,25.3,4.07,28.07-15.35-28-15.35-28,12,26.27,3.12,27.8c-6.69,1.16-14.78-26.36-14.78-26.36s10.13,22.66,3.3,24.14C246.5,399,237.45,374,237.45,374c-18,.85-26.92-6.11-32.68-11.81C203.38,360.83,232.2,331.17,232.2,331.17Z" style="fill:#f7a9a0"></path><path d="M270,362.66c1.54,2.92,3.13,5.86,4.4,8.91s2.45,6.14,3.44,9.29a55.75,55.75,0,0,1,2.68,12.64c-1.28-7.58-5.69-18.56-7-21.61s-2.4-6.15-3.68-9.19C269.87,362.62,270,362.59,270,362.66Z" style="fill:#263238"></path><path d="M258.93,367.07c1.81,3.82,3.75,7.54,5.39,11.43s2.84,7.7,4.2,11.68c.11.3-.09.26-.21-.05-1.52-3.92-3.23-7.42-4.79-11.33s-3-7.86-4.68-11.69C258.81,367.05,258.91,367,258.93,367.07Z" style="fill:#263238"></path><path d="M248.74,369.15a94.12,94.12,0,0,1,6.89,18.11c.1.3-.16.22-.27-.09-2.18-6.06-3.84-10.83-6.82-17.91C248.49,369.15,248.67,369,248.74,369.15Z" style="fill:#263238"></path><path d="M267.63,344.26a35.86,35.86,0,0,1,5.5,4.4,44.33,44.33,0,0,1,4.72,5.25c.73.93,1.38,1.91,2.06,2.88s1.27,2,1.78,3a35,35,0,0,1,2.74,6.5c-.59-1-1-2.11-1.65-3.1l-.84-1.53c-.29-.5-.61-1-.91-1.48a66.08,66.08,0,0,0-4-5.71c-1.4-1.84-2.91-3.61-4.47-5.32-.79-.86-1.59-1.7-2.42-2.52S268.5,345.05,267.63,344.26Z" style="fill:#263238"></path><path d="M235.73,331.17l-35,39s-35.39-8.13-40.6-17.2c-3.43-6,23.21-30.17,43.32-27.35Z" style="fill:#FFA800"></path><path d="M186.09,333.18a.9.9,0,1,1-.89-.89A.89.89,0,0,1,186.09,333.18Zm13.51-.89a.89.89,0,1,0,.89.89A.89.89,0,0,0,199.6,332.29Zm14.4,0a.89.89,0,1,0,.9.89A.89.89,0,0,0,214,332.29Zm14.41,0a.89.89,0,1,0,.89.89A.89.89,0,0,0,228.41,332.29Zm-57.62,19.27a.89.89,0,1,0,.9.89A.89.89,0,0,0,170.79,351.56Zm14.41,0a.89.89,0,1,0,.89.89A.89.89,0,0,0,185.2,351.56Zm14.4,0a.89.89,0,1,0,.89.89A.89.89,0,0,0,199.6,351.56Zm14.4,0a.89.89,0,1,0,.9.89A.89.89,0,0,0,214,351.56Zm-36-9.23a.9.9,0,1,0,.9.89A.89.89,0,0,0,178,342.33Zm14.41,0a.9.9,0,1,0,.89.89A.89.89,0,0,0,192.4,342.33Zm14.4,0a.9.9,0,1,0,.9.89A.89.89,0,0,0,206.8,342.33Zm14.41,0a.9.9,0,1,0,.89.89A.89.89,0,0,0,221.21,342.33ZM178,361.6a.9.9,0,1,0,.9.89A.89.89,0,0,0,178,361.6Zm14.41,0a.9.9,0,1,0,.89.89A.89.89,0,0,0,192.4,361.6Zm14.41,0a.9.9,0,0,0-.9.9.89.89,0,0,0,.9.89l.88-1h0A.9.9,0,0,0,206.81,361.59Z" style="fill:#fff"></path><path d="M179.47,331.93c3.24-2.35,12.37-7.83,24-6.37.1,0,.11.18,0,.17-8.78-.25-20.63,4.34-24,6.34C179.46,332.12,179.39,332,179.47,331.93Z" style="fill:#263238"></path><path d="M191.17,363.61c3.62-4.49,7.47-8.78,11.34-13.06s7.73-8.58,11.71-12.77c2.24-2.37,4.48-4.75,6.81-7,.06-.06.17,0,.12.1-3.61,4.48-7.46,8.8-11.29,13.1s-7.73,8.58-11.65,12.82c-2.22,2.39-4.48,4.74-6.81,7C191.28,363.91,191.07,363.74,191.17,363.61Z" style="fill:#263238"></path><path d="M235.8,330.66a49,49,0,0,0-6.56-1.49c-2.21-.42-4.43-.79-6.64-1.15-4.41-.71-13.68-2.71-21.83-2.69-.09,0,.37.44.46.44,3.88-.21,31.68,5.32,34,5.48a4.09,4.09,0,0,0-.25.46c0,.12.07.26.19.18.29-.19.49-.43.76-.64A.33.33,0,0,0,235.8,330.66Z" style="fill:#263238"></path><path d="M264.2,257c33.44,29.17,59.74,65.21,58,74.22C319.05,348,297,349.05,293.62,345.42c-13.54-14.67-27.83-43.09-43.31-74.8C236.48,242.28,253.19,247.41,264.2,257Z" style="fill:#FFA800"></path><path d="M258.11,256.1a.9.9,0,1,1-.89-.89A.89.89,0,0,1,258.11,256.1Zm-.89,18.38a.9.9,0,1,0,.89.89A.89.89,0,0,0,257.22,274.48Zm14.4,0a.9.9,0,1,0,.9.89A.89.89,0,0,0,271.62,274.48ZM250,265.25a.9.9,0,1,0,.89.89A.89.89,0,0,0,250,265.25Zm14.4,0a.9.9,0,1,0,.89.89A.89.89,0,0,0,264.42,265.25Zm7.2,28.5a.9.9,0,1,0,.9.89A.89.89,0,0,0,271.62,293.75Zm14.41,0a.9.9,0,1,0,.89.89A.89.89,0,0,0,286,293.75Zm14.09.05a.9.9,0,0,0-.58.84.89.89,0,0,0,.89.89.91.91,0,0,0,.77-.43Zm-35.7-9.28a.9.9,0,1,0,.89.89A.89.89,0,0,0,264.42,284.52Zm14.4,0a.9.9,0,1,0,.9.89A.89.89,0,0,0,278.82,284.52Zm13.65.42a.92.92,0,0,0-.13.47.89.89,0,0,0,.89.9.84.84,0,0,0,.37-.08C293.23,285.79,292.85,285.37,292.47,284.94ZM272,313.08c.19.33.36.66.54,1a.81.81,0,0,0,0-.15A.88.88,0,0,0,272,313.08ZM286,313a.9.9,0,1,0,.89.89A.89.89,0,0,0,286,313Zm14.4,0a.9.9,0,1,0,.89.89A.89.89,0,0,0,300.43,313Zm14.06.06h0a.9.9,0,0,0,.35,1.72.92.92,0,0,0,.61-.23C315.14,314.08,314.82,313.58,314.49,313.08Zm-35.67-9.29a.9.9,0,1,0,.9.89A.89.89,0,0,0,278.82,303.79Zm14.41,0a.9.9,0,1,0,.89.89A.89.89,0,0,0,293.23,303.79Zm15.29.71s0,0,0,0l0,0-.42-.55a.87.87,0,0,0-.45-.12.9.9,0,0,0,0,1.79.91.91,0,0,0,.9-.89A1.21,1.21,0,0,0,308.52,304.5ZM286,332.29a.89.89,0,1,0,.89.89A.89.89,0,0,0,286,332.29Zm14.4,0a.89.89,0,1,0,.89.89A.89.89,0,0,0,300.43,332.29Zm14.41,0a.89.89,0,1,0,.89.89A.89.89,0,0,0,314.84,332.29Zm-36-9.23a.9.9,0,1,0,.9.89A.89.89,0,0,0,278.82,323.06Zm14.41,0a.9.9,0,1,0,.89.89A.89.89,0,0,0,293.23,323.06Zm14.4,0a.9.9,0,1,0,.9.89A.89.89,0,0,0,307.63,323.06Zm-14.4,19.27a.9.9,0,1,0,.89.89A.89.89,0,0,0,293.23,342.33Zm14.4,0a.9.9,0,1,0,.9.89A.89.89,0,0,0,307.63,342.33Z" style="fill:#fff"></path><path d="M288.1,338.87c-2.45-3.8-4.76-7.72-7.1-11.6s-4.66-7.78-6.94-11.7c-4.5-7.75-8.68-15.67-12.71-23.67-2.28-4.53-4.6-9-6.77-13.62-.07-.15-.31,0-.26.11q3.15,8,6.78,15.74L261,294c-.54-.73-1.08-1.46-1.61-2.2-1.05-1.46-2-2.95-3-4.48-.07-.12-.26,0-.19.12a51.42,51.42,0,0,0,3.66,6A28.31,28.31,0,0,0,262,296l.07.06c1.11,2.3,2.24,4.59,3.43,6.86a271.21,271.21,0,0,0,13.64,23.52c1.4,2.13,2.81,4.25,4.28,6.34s3,4.11,4.56,6.17C288,339.08,288.18,339,288.1,338.87Z" style="fill:#263238"></path><path d="M299.16,342.17C292.82,333.08,296,315,303,271.6c1-6,46.54-6.47,45.84,0-.88,8.14-9,40.31-11.11,45C327.36,339.8,303.45,348.34,299.16,342.17Z" style="fill:#f7a9a0"></path><path d="M347.36,277.2c1.89-4.86,10.58-31.8,11-38.63s.27-26.58-4.93-27.44-5.61,4.92-5.61,4.92-1.39-8.33-6.7-8.73-5.66,8.63-5.66,8.63-2.05-8.45-7.38-8.46S324,216.6,324,216.6s-1.52-7.81-5.91-6c-5.28,2.2-.86,16.29-1.91,23.79-.24,1.71-7.28,34.2-7.28,34.2Z" style="fill:#f7a9a0"></path><path d="M323.86,215.82c3.23,10.37,2.85,15.46.09,25.78-.05.21.24.33.31.13,3.62-9.87,5-16.19.1-26.09C324.12,215.15,323.71,215.33,323.86,215.82Z" style="fill:#263238"></path><path d="M335.21,215.13c2.41,11.06,2.05,16.59,0,27.62,0,.15.24.22.28.06,3-10.64,4.21-17,.35-27.71C335.61,214.61,335.1,214.63,335.21,215.13Z" style="fill:#263238"></path><path d="M347.72,216.6c1.56,10.88,1.42,17-2,27.4a.2.2,0,0,0,.38.15c4.51-10.31,4.74-17.89,1.94-27.56C347.86,215.93,347.62,215.92,347.72,216.6Z" style="fill:#263238"></path><path d="M302.34,277.09s-3.61-13.11-3.92-19.23,6.91-29.31,12-28c6.59,1.65,5.06,15.87,3.4,22.73,0,0,15.24,3.8,16.35,14.24S302.34,277.09,302.34,277.09Z" style="fill:#f7a9a0"></path><path d="M312.1,230.87c4.92,5.83,2.16,14.7,1,21.48a.63.63,0,0,0,.7.76c6.28,2,14.56,6.69,16.6,13.34a.16.16,0,0,0,.31-.06c-1.22-7.44-9-12.7-16-14.46,1.25-6.94,3.63-16-2.61-21.11C312.11,230.79,312.06,230.83,312.1,230.87Z" style="fill:#263238"></path><path d="M349.56,286.3l-52.85,15s-10.54,34.64-3.84,43.33c7.17,9.29,40.44-5.11,47.06-25.35Z" style="fill:#FFA800"></path><path d="M330.13,294.64a.89.89,0,1,1-.89-.89A.89.89,0,0,1,330.13,294.64Zm13.51-.89a.9.9,0,1,0,.9.89A.89.89,0,0,0,343.64,293.75ZM300.43,313a.9.9,0,1,0,.89.89A.89.89,0,0,0,300.43,313Zm14.41,0a.9.9,0,1,0,.89.89A.89.89,0,0,0,314.84,313Zm14.4,0a.9.9,0,1,0,.89.89A.89.89,0,0,0,329.24,313Zm-21.61-9.23a.9.9,0,1,0,.9.89A.89.89,0,0,0,307.63,303.79Zm14.41,0a.9.9,0,1,0,.89.89A.89.89,0,0,0,322,303.79Zm14.4,0a.9.9,0,1,0,.9.89A.89.89,0,0,0,336.44,303.79Zm-36,28.5a.89.89,0,1,0,.89.89A.89.89,0,0,0,300.43,332.29Zm14.41,0a.89.89,0,1,0,.89.89A.89.89,0,0,0,314.84,332.29Zm14.4,0a.89.89,0,1,0,.89.89A.89.89,0,0,0,329.24,332.29Zm-36-9.23a.9.9,0,1,0,.89.89A.89.89,0,0,0,293.23,323.06Zm14.4,0a.9.9,0,1,0,.9.89A.89.89,0,0,0,307.63,323.06Zm14.41,0a.9.9,0,1,0,.89.89A.89.89,0,0,0,322,323.06Zm14.4,0a.9.9,0,1,0,.9.89A.89.89,0,0,0,336.44,323.06Zm-43.21,19.27a.9.9,0,1,0,.89.89A.89.89,0,0,0,293.23,342.33Zm14.4,0a.9.9,0,1,0,.9.89A.89.89,0,0,0,307.63,342.33Z" style="fill:#fff"></path><path d="M298.44,313.31c5.9-1.34,11.72-3,17.54-4.66s11.65-3.32,17.43-5.13c3.26-1,6.53-2,9.76-3.17.09,0,.06-.18,0-.16-5.89,1.33-11.73,3-17.54,4.59s-11.66,3.32-17.46,5.06c-3.27,1-6.53,2-9.76,3.17C298.22,313.07,298.27,313.35,298.44,313.31Z" style="fill:#263238"></path><path d="M298.59,300.72c-.82.08-1.64.25-2.45.41a.38.38,0,0,0-.26.26c-.9,3.08-1.54,6.25-2.18,9.39s-1.19,6.2-1.7,9.32c-.28,1.67-.52,3.36-.71,5a17.91,17.91,0,0,0-1.83,6.53.1.1,0,0,0,.2,0,22.62,22.62,0,0,1,1.55-5.87,41.74,41.74,0,0,0,.33,12.37,0,0,0,0,0,0,0c-1-6.1.5-12.46,1.5-18.46.5-3,1.07-6,1.66-9s1.28-5.95,1.83-8.94c.7-.27,1.41-.53,2.08-.85A.1.1,0,0,0,298.59,300.72Z" style="fill:#263238"></path><path d="M245,249.2c-.47,1.7-9.09,12.55-16.93,11.89-2.55-.22-2-14.21-2-14.21l-.19-1-2.7-14.59L240.57,221l2.51-1.36s.48,4,1,9.09c0,.23.05.46.07.71s.08.56.1.82c.1.75.18,1.52.26,2.29.06.58.11,1.15.15,1.76s.1,1.22.15,1.83A96.47,96.47,0,0,1,245,249.2Z" style="fill:#f7a9a0"></path><path d="M244.1,228.7a29.79,29.79,0,0,1-18.24,17.14l-2.7-14.59L240.57,221l2.51-1.36S243.56,223.66,244.1,228.7Z" style="fill:#263238"></path><path d="M204.81,207.64c-2.69,25.91,12.53,30.45,18.12,31,5.07.52,22.41,1.65,27.76-23.85s-5.85-34.93-17.39-36.74S207.5,181.73,204.81,207.64Z" style="fill:#f7a9a0"></path><path d="M213.54,201.62a17.64,17.64,0,0,0,1.78-.21,2.92,2.92,0,0,0,1.78-.56.92.92,0,0,0,.11-1.13A2.32,2.32,0,0,0,215,199a3.38,3.38,0,0,0-2.22,1A1,1,0,0,0,213.54,201.62Z" style="fill:#263238"></path><path d="M232.12,201.48a15.45,15.45,0,0,1-1.73-.5,2.89,2.89,0,0,1-1.66-.85.92.92,0,0,1,.08-1.12,2.3,2.3,0,0,1,2.3-.37,3.35,3.35,0,0,1,2,1.35A1,1,0,0,1,232.12,201.48Z" style="fill:#263238"></path><path d="M227.49,209.26c0-.06.13.1.12.17-.23,1.76-.19,3.82,1.35,4.56,0,0,0,.11,0,.1C227,213.62,227,210.89,227.49,209.26Z" style="fill:#263238"></path><path d="M229.25,207.57c2.86.07,2.52,5.78-.13,5.73S226.85,207.52,229.25,207.57Z" style="fill:#263238"></path><path d="M230.35,207.94c.48.35.94.95,1.53,1.05s1.26-.46,1.75-1c.05,0,.09,0,.09.07-.05,1.1-.53,2.2-1.72,2.29s-1.79-.92-2-2C230,208.09,230.16,207.8,230.35,207.94Z" style="fill:#263238"></path><path d="M216.7,208c0-.07-.15.07-.15.14-.06,1.78-.43,3.8-2.07,4.28-.06,0-.06.1,0,.1C216.46,212.33,216.92,209.65,216.7,208Z" style="fill:#263238"></path><path d="M215.24,206c-2.83-.41-3.44,5.29-.82,5.67S217.62,206.35,215.24,206Z" style="fill:#263238"></path><path d="M214,206.25c-.49.25-1,.75-1.53.73s-1-.69-1.36-1.32c0-.07-.08,0-.09.05-.15,1.08.09,2.26,1.11,2.58s1.74-.57,2.11-1.62C214.33,206.47,214.21,206.15,214,206.25Z" style="fill:#263238"></path><path d="M224.69,223.06c-.43.41-.86,1-1.51,1a4.52,4.52,0,0,1-1.9-.47.07.07,0,0,0-.08.09,2.37,2.37,0,0,0,2.24,1,1.88,1.88,0,0,0,1.42-1.55C224.89,223,224.75,223,224.69,223.06Z" style="fill:#263238"></path><path d="M217.74,216.14s-.55,2.62-.64,3.87c0,.11.29.19.71.25,0,0,0,0,.05,0a5.92,5.92,0,0,0,5.91-1.81c.1-.11-.05-.25-.17-.18a9,9,0,0,1-5.52,1.17c-.07-.35,1.09-4.45.9-4.48a10.68,10.68,0,0,0-2.88.44c1-5.48,2.85-10.77,3.75-16.24a.16.16,0,0,0-.31-.1c-2.35,5.39-3.62,11.68-4.79,17.32C214.59,217.08,217.23,216.32,217.74,216.14Z" style="fill:#263238"></path><path d="M218.24,219.8a7,7,0,0,0,2.54,2.5,3.07,3.07,0,0,0,1.9.34c1.43-.2,1.61-1.46,1.48-2.58a7.53,7.53,0,0,0-.42-1.73A9.12,9.12,0,0,1,218.24,219.8Z" style="fill:#263238"></path><path d="M220.78,222.3a3.07,3.07,0,0,0,1.9.34c1.43-.2,1.61-1.46,1.48-2.58A3.29,3.29,0,0,0,220.78,222.3Z" style="fill:#ff9cbd"></path><path d="M249.61,213.29c-6-.43-5.15-9.84-5.15-9.84s-6.72-1.17-6.31-12.13c0,0-3.8,6.33-13.08,6.91-2,.13,5-4.37,5-4.37s-9.38,6.14-23.63,2.27c-1-.27,3.44-15.08,15.22-19.36s21.77-.47,28.2,7.27c0,0,8,4.52,8.29,12.48S251.93,213.46,249.61,213.29Z" style="fill:#263238"></path><path d="M254.22,209.29a23.38,23.38,0,0,0,1.24-21.93c-5.48-12.22-25.14-17.07-38.11-8.42,0,0,22.3-4,29.84,6.06S254.22,209.29,254.22,209.29Z" style="fill:#FFA800"></path><path d="M246.23,215.8s5.82-8,9.47-6-.81,13.81-5.17,15.34a4.4,4.4,0,0,1-5.86-2.46Z" style="fill:#f7a9a0"></path><path d="M254.34,213.18c.07,0,.08.09,0,.12-3.06,1.17-4.7,4-5.87,6.86.92-1.1,2.16-1.7,3.65-.6.08.06,0,.18-.09.16a2.7,2.7,0,0,0-3,.9,13.44,13.44,0,0,0-1.46,2.38c-.15.27-.64.12-.53-.19l0-.07C247.07,218.87,250.17,213.5,254.34,213.18Z" style="fill:#263238"></path></g><g id="freepik--speech-bubble--inject-101"><path d="M280.29,179.69a24,24,0,0,1-4.1-13.22c0-16.75,18.4-30.33,41.07-30.33s41.05,13.58,41.05,30.33-18.38,30.32-41.05,30.32c-11,0-21-3.18-28.33-8.39L274.79,192Z" style="fill:#fff"></path><path d="M280.29,179.69a23.4,23.4,0,0,1-.93-25.33,32.33,32.33,0,0,1,9-9.81,42.92,42.92,0,0,1,11.91-6.06,54.83,54.83,0,0,1,13.12-2.62,56.5,56.5,0,0,1,13.37.68c1.09.22,2.21.37,3.29.66l3.24.87,3.17,1.12c1.06.38,2.06.89,3.09,1.33a40,40,0,0,1,11,7.63,28.09,28.09,0,0,1,7.1,11.38,23,23,0,0,1,.13,13.41,27.9,27.9,0,0,1-6.92,11.49A39.27,39.27,0,0,1,340,192.19a47.72,47.72,0,0,1-12.75,4.09,55.41,55.41,0,0,1-13.36.76,52.37,52.37,0,0,1-13.13-2.49,44.12,44.12,0,0,1-11.95-6l.19,0-14.17,3.48-.23.06.1-.21Zm0,0L274.89,192l-.13-.15,14.12-3.71.1,0,.09.06a48.41,48.41,0,0,0,24.85,8.11,54.83,54.83,0,0,0,13.17-.88,47.15,47.15,0,0,0,12.52-4,38.35,38.35,0,0,0,10.66-7.61,27,27,0,0,0,6.66-11.11,22.11,22.11,0,0,0-.16-12.84,27.19,27.19,0,0,0-6.83-11,39,39,0,0,0-10.74-7.48c-1-.43-2-.94-3-1.31l-3.1-1.11-3.19-.87c-1.06-.29-2.16-.43-3.23-.66a57,57,0,0,0-13.17-.72,54.4,54.4,0,0,0-13,2.47A42.24,42.24,0,0,0,288.74,145a32.53,32.53,0,0,0-9,9.54,23.68,23.68,0,0,0-3.42,12.61A24.07,24.07,0,0,0,280.29,179.69Z" style="fill:#263238"></path><path d="M301.12,161.33V172.6H299v-4.81h-5.12v4.81h-2.19V161.33h2.19v4.56H299v-4.56Z" style="fill:#263238"></path><path d="M311.3,170.68v1.92h-7.83V161.33h7.68v1.92h-5.49V166h4.75v1.78h-4.75v2.93Z" style="fill:#263238"></path><path d="M313,172.6V161.33h2.19v9.35H321v1.92Z" style="fill:#263238"></path><path d="M322.28,172.6V161.33h2.19v9.35h5.75v1.92Z" style="fill:#263238"></path><path d="M335.65,172.68a5.15,5.15,0,0,1-2.25-.48,5.41,5.41,0,0,1-1.73-1.29,5.89,5.89,0,0,1-1.51-3.94,5.69,5.69,0,0,1,.42-2.16,5.81,5.81,0,0,1,1.16-1.83,5.41,5.41,0,0,1,1.75-1.26,5.25,5.25,0,0,1,2.21-.47,5,5,0,0,1,2.23.5,5.73,5.73,0,0,1,1.72,1.31,6.08,6.08,0,0,1,1.51,3.94,5.6,5.6,0,0,1-.42,2.15A5.67,5.67,0,0,1,339.6,171a5.8,5.8,0,0,1-1.74,1.26A5.27,5.27,0,0,1,335.65,172.68ZM332.38,167a4.47,4.47,0,0,0,.22,1.41,3.78,3.78,0,0,0,.64,1.21,3.16,3.16,0,0,0,1,.84,3.16,3.16,0,0,0,2.79,0,3.18,3.18,0,0,0,1-.86,4.06,4.06,0,0,0,.64-1.22A4.6,4.6,0,0,0,339,167a4.43,4.43,0,0,0-.23-1.41,3.81,3.81,0,0,0-.65-1.21,3.07,3.07,0,0,0-1-.83,3.25,3.25,0,0,0-2.79,0,3.08,3.08,0,0,0-1,.86,3.87,3.87,0,0,0-.63,1.21A4.51,4.51,0,0,0,332.38,167Z" style="fill:#263238"></path><path d="M343.05,168.37v-7.15h2.12v7.15Zm0,4.23v-2.39h2.12v2.39Z" style="fill:#263238"></path></g></svg>